<svg width="40" height="40" viewBox="0 0 40 40" fill="none" xmlns="http://www.w3.org/2000/svg">
<rect width="40" height="40" rx="20" fill="#FF7878"/>
<path d="M24.3274 13.636L19.9999 17.9635L15.6724 13.636C15.036 12.9996 14.1451 13.1269 13.636 13.636C13.1268 14.1451 12.9996 15.0361 13.636 15.6725L18.0907 20.1273L13.7632 24.4548C13.1268 24.8366 13.1268 25.8548 13.636 26.3639C14.1451 26.8731 15.036 27.0003 15.6724 26.3639L20.1272 21.9092L24.582 26.3639C24.8365 26.8731 25.8548 26.8731 26.3639 26.3639C26.873 25.8548 27.0003 24.9639 26.3639 24.3275L22.0364 20L26.4912 15.5452C27.0003 15.0361 26.873 14.1451 26.3639 13.636C25.8548 13.1269 24.9638 12.9996 24.3274 13.636Z" fill="#181A1A"/>
</svg>
