<svg width="65" height="64" viewBox="0 0 65 64" fill="none" xmlns="http://www.w3.org/2000/svg">
<g clip-path="url(#clip0_36_10410)">
<circle cx="32.5" cy="32.0957" r="32" fill="#F693AB"/>
<circle cx="32.5" cy="32.0957" r="31.5" stroke="#181A1A"/>
<path d="M50.7387 13.905C46.0448 9.20703 39.7168 6.50882 33.08 6.37541C26.4431 6.242 20.0121 8.68375 15.1335 13.1893C10.2549 17.6949 7.30712 23.9149 6.90746 30.5469C6.50781 37.1788 8.68725 43.7083 12.9894 48.7681C17.2916 53.8279 23.3828 57.0256 29.9876 57.6916C36.5923 58.3575 43.1984 56.4401 48.4225 52.3408C53.6465 48.2415 57.0834 42.2783 58.0134 35.6999C58.9435 29.1214 57.2945 22.4379 53.4118 17.0489" stroke="#181A1A" stroke-linecap="round"/>
<g clip-path="url(#clip1_36_10410)">
<path d="M36.6175 32.5673C35.6005 30.98 33.8681 30.033 31.9828 30.033C30.0974 30.033 28.3659 30.9809 27.3481 32.5673L24.8968 36.3915C24.4898 37.0257 24.3023 37.7593 24.3542 38.511C24.406 39.2627 24.692 39.9634 25.1819 40.5363C25.6718 41.1092 26.319 41.5006 27.0543 41.6682C27.7896 41.8358 28.5422 41.7641 29.2325 41.4608L29.2783 41.4401C31.015 40.6918 32.9998 40.6987 34.7322 41.4608C35.1789 41.657 35.6524 41.7563 36.1302 41.7563C36.3902 41.7563 36.6512 41.727 36.9104 41.6682C37.6457 41.5006 38.2929 41.1092 38.7828 40.5363C39.2727 39.9634 39.5587 39.2627 39.6105 38.511C39.6624 37.7593 39.4749 37.0257 39.0679 36.3915L36.6166 32.5681L36.6175 32.5673Z" stroke="#181A1A" stroke-width="1.5" stroke-miterlimit="10"/>
<path d="M24.844 31.126C25.4454 30.8953 25.9016 30.4106 26.1297 29.7625C26.3466 29.1456 26.3293 28.4483 26.0796 27.8003C25.8299 27.1523 25.3763 26.6235 24.8008 26.3116C24.1969 25.9832 23.5333 25.9297 22.9337 26.1612C21.7266 26.6252 21.1727 28.1165 21.6989 29.4869C22.1197 30.5773 23.0995 31.266 24.0915 31.266C24.3446 31.266 24.5987 31.221 24.844 31.1269V31.126Z" stroke="#181A1A" stroke-width="1.5" stroke-miterlimit="10"/>
<path d="M29.859 28.2358C31.3676 28.2358 32.5954 26.8369 32.5954 25.1183C32.5954 23.3997 31.3676 22 29.859 22C28.3504 22 27.1226 23.3989 27.1226 25.1183C27.1226 26.8378 28.3504 28.2358 29.859 28.2358Z" stroke="#181A1A" stroke-width="1.5" stroke-miterlimit="10"/>
<path d="M35.7639 29.0013C35.9963 29.0782 36.233 29.1154 36.4689 29.1154C37.5697 29.1154 38.642 28.3144 39.0507 27.0831C39.2866 26.3746 39.271 25.6255 39.0066 24.974C38.731 24.2914 38.2186 23.7963 37.5663 23.5794C36.913 23.3626 36.2071 23.4533 35.5772 23.8343C34.9759 24.1981 34.5153 24.7891 34.2794 25.4976C33.7826 26.9924 34.4479 28.5641 35.763 29.0013H35.7639Z" stroke="#181A1A" stroke-width="1.5" stroke-miterlimit="10"/>
<path d="M42.6217 29.0592C41.5814 28.2902 40.0253 28.6229 39.1526 29.8023C38.2808 30.9817 38.4173 32.5664 39.4559 33.3362C39.8352 33.617 40.2828 33.751 40.7407 33.751C41.5391 33.751 42.3703 33.3431 42.9259 32.594C43.7977 31.4146 43.6612 29.8299 42.6217 29.0601V29.0592Z" stroke="#181A1A" stroke-width="1.5" stroke-miterlimit="10"/>
</g>
</g>
<defs>
<clipPath id="clip0_36_10410">
<rect width="64" height="64" fill="white" transform="translate(0.5)"/>
</clipPath>
<clipPath id="clip1_36_10410">
<rect width="24" height="24" fill="white" transform="translate(20.5 20)"/>
</clipPath>
</defs>
</svg>
